<svg width="288" height="69" viewBox="0 0 288 69" fill="none" xmlns="http://www.w3.org/2000/svg">
<g clip-path="url(#clip0_2_31)">
<path fill-rule="evenodd" clip-rule="evenodd" d="M24.1758 64.7788L4.21859 44.8094C-1.37916 39.1271 -1.37916 29.8729 4.21859 24.2718L24.1758 4.22118C29.7735 -1.46118 39.022 -1.46118 44.6197 4.22118L62.8732 22.5671H44.8631L35.2901 12.9882C34.8034 12.5012 33.911 12.5012 33.4242 12.9882L12.8992 33.6071C12.4124 34.0941 12.4124 34.9871 12.8992 35.4741L33.4242 56.0929C33.911 56.58 34.8034 56.58 35.2901 56.0929L45.0253 46.3518H63.0355L44.6197 64.86C39.022 70.5424 29.7735 70.5424 24.1758 64.86M162.091 21.1059C161.442 20.8624 160.712 20.7 159.982 20.7C159.252 20.7 158.522 20.8624 157.873 21.1059C156.169 21.7553 154.79 23.2976 154.79 25.7329V43.2671C154.79 45.7024 156.169 47.2447 157.873 47.8941C158.522 48.1376 159.252 48.3 159.982 48.3C160.712 48.3 161.442 48.1376 162.091 47.8941C163.795 47.2447 165.174 45.7024 165.174 43.2671V25.7329C165.174 23.2976 163.795 21.7553 162.091 21.1059ZM222.206 20.7H183.265C180.832 20.7 179.29 21.8365 178.56 23.2165C178.317 23.7847 178.154 24.3529 178.154 25.0023C178.154 25.6518 178.317 26.22 178.56 26.7882C179.29 28.2494 180.832 29.3047 183.265 29.3047H197.544V43.2671C197.544 45.7024 198.923 47.2447 200.626 47.8941C201.275 48.1376 202.006 48.3 202.736 48.3C203.466 48.3 204.196 48.1376 204.845 47.8941C206.549 47.2447 207.928 45.7024 207.928 43.2671V29.3047H222.206C224.64 29.3047 226.181 28.1682 226.912 26.7882C227.155 26.22 227.317 25.6518 227.317 25.0023C227.317 24.3529 227.155 23.7847 226.912 23.2165C226.181 21.7553 224.64 20.7 222.206 20.7ZM136.78 28.1682C139.214 28.1682 140.755 27.1941 141.485 25.9765C141.728 25.4894 141.891 24.9212 141.891 24.4341C141.891 23.9471 141.728 23.3788 141.485 22.8918C140.755 21.6741 139.214 20.7 136.78 20.7H101.49C99.4614 20.7 97.7577 20.8624 96.5408 21.5929C95.2428 22.3235 94.5127 23.7035 94.5127 26.1388V33.4447C94.5127 35.2306 95.0806 36.4482 96.0541 37.1788C97.1898 38.0718 98.8124 38.4776 100.516 38.4776H131.506V40.9129H98.8935C98.4068 40.9129 98.0011 40.9129 97.6766 40.9941C96.5408 41.1565 95.7296 41.6435 95.2428 42.2929C94.7561 42.9423 94.5127 43.6729 94.5127 44.4035V45.1341C94.6749 45.9459 94.9994 46.7576 95.7296 47.4071C96.3786 47.9753 97.4332 48.3812 98.9746 48.3812H136.293C141.81 48.3812 141.81 45.4588 141.81 41.3188V35.7988C141.81 34.0941 141.485 32.8765 140.674 31.9835C139.863 31.1718 138.564 30.6847 136.78 30.6847H104.897V28.1682H136.78ZM282.889 38.3965C285.323 38.3965 286.864 37.4224 287.594 36.1235C287.838 35.6365 288 35.0682 288 34.5C288 33.9318 287.838 33.3635 287.594 32.8765C287.026 31.8212 285.81 30.9282 284.025 30.6847H282.97H250.682V29.4671H282.97C285.404 29.4671 286.945 28.3306 287.675 26.9506C287.919 26.3824 288.081 25.8141 288.081 25.1647C288.081 24.5153 287.919 23.9471 287.675 23.3788C287.351 22.6482 286.783 22.08 286.053 21.5929C286.053 21.5929 285.972 21.5929 285.891 21.5118L285.647 21.3494C284.917 21.0247 284.106 20.8624 283.051 20.8624H246.301C244.516 20.8624 243.056 21.1059 242.082 21.9176C241.028 22.7294 240.46 23.9471 240.46 25.8953V43.8353V44.0788V44.5659C240.46 45.3776 240.784 46.2706 241.433 46.92C242.082 47.5694 242.975 48.0565 244.273 48.3C244.678 48.3 245.084 48.3812 245.571 48.3812H283.132C285.566 48.3812 287.108 47.4071 287.838 46.1082C288.081 45.6212 288.243 45.0529 288.243 44.4847C288.243 43.9165 288.081 43.3482 287.838 42.8612C287.27 41.8059 286.053 40.9129 284.268 40.6694H283.214H250.925V38.4776H283.214L282.889 38.3965Z" fill="white"/>
<path d="M99.867 57.8788C101.003 57.8788 101.895 58.2035 102.706 59.0153L103.599 58.1224C102.706 57.1482 101.327 56.58 99.7859 56.58C96.7031 56.58 94.5127 58.6906 94.5127 61.6129C94.5127 64.5353 96.7842 66.6459 99.7859 66.6459C102.788 66.6459 102.544 66.24 103.518 65.3471V61.4506H102.139V64.6976C101.408 65.1847 100.678 65.3471 99.7859 65.3471C97.5144 65.3471 95.8107 63.7235 95.8107 61.5318C95.8107 59.34 97.4332 57.7165 99.7859 57.7165L99.867 57.8788ZM107.736 56.7424H106.357V66.6459H113.172V65.4282H107.817V56.7424H107.736ZM119.175 56.6612C116.092 56.6612 113.902 58.8529 113.902 61.6941C113.902 64.5353 116.174 66.7271 119.175 66.7271C122.177 66.7271 124.448 64.5353 124.448 61.6941C124.448 58.8529 122.177 56.6612 119.175 56.6612ZM119.175 65.5094C116.985 65.5094 115.281 63.8859 115.281 61.6941C115.281 59.5024 116.904 57.8788 119.175 57.8788C121.447 57.8788 122.988 59.5024 122.988 61.6941C122.988 63.8859 121.366 65.5094 119.175 65.5094ZM133.372 61.5318C134.184 61.1259 134.67 60.3953 134.67 59.34C134.67 57.7165 133.372 56.7424 131.101 56.7424H126.639V66.6459H131.344C133.859 66.6459 135.157 65.6718 135.157 63.9671C135.157 62.2624 134.427 61.7753 133.291 61.5318H133.372ZM128.099 57.8788H131.02C132.48 57.8788 133.291 58.4471 133.291 59.5024C133.291 60.5577 132.48 61.1259 131.02 61.1259H128.099V57.96V57.8788ZM131.344 65.5094H128.099V62.1812H131.344C132.886 62.1812 133.778 62.6682 133.778 63.8047C133.778 64.9412 132.967 65.4282 131.344 65.4282V65.5094ZM140.43 56.7424L135.968 66.6459H137.429L138.483 64.1294H143.757L144.811 66.6459H146.272L141.728 56.7424H140.349H140.43ZM139.051 63.0741L141.161 58.2035L143.27 63.0741H138.97H139.051ZM149.354 56.7424H147.975V66.6459H154.79V65.4282H149.436V56.7424H149.354ZM161.929 62.1812H166.878V60.9635H161.929V57.8788H167.527V56.6612H160.55V66.5647H167.77V65.3471H162.01V62.1812H161.929ZM173.611 64.86L170.042 56.7424H168.5L172.881 66.6459H174.26L178.641 56.7424H177.262L173.692 64.86H173.611ZM181.399 62.1812H186.348V60.9635H181.399V57.8788H186.997V56.6612H180.02V66.5647H187.241V65.3471H181.481V62.1812H181.399ZM196.651 64.1294L190.729 56.7424H189.593V66.6459H190.972V59.2588L196.895 66.6459H198.03V56.7424H196.651V64.1294ZM199.734 57.96H203.141V66.6459H204.521V57.96H207.928V56.7424H199.734V57.96ZM214.986 56.7424H213.607V66.6459H220.421V65.4282H215.067V56.7424H214.986ZM226.344 56.6612C223.261 56.6612 221.07 58.8529 221.07 61.6941C221.07 64.5353 223.342 66.7271 226.344 66.7271C229.345 66.7271 231.617 64.5353 231.617 61.6941C231.617 58.8529 229.345 56.6612 226.344 56.6612ZM226.344 65.5094C224.153 65.5094 222.45 63.8859 222.45 61.6941C222.45 59.5024 224.072 57.8788 226.344 57.8788C228.615 57.8788 230.157 59.5024 230.157 61.6941C230.157 63.8859 228.534 65.5094 226.344 65.5094ZM238.432 57.8788C239.567 57.8788 240.46 58.2035 241.271 59.0153L242.163 58.1224C241.271 57.1482 239.892 56.58 238.35 56.58C235.268 56.58 233.077 58.6906 233.077 61.6129C233.077 64.5353 235.349 66.6459 238.35 66.6459C241.352 66.6459 241.109 66.24 242.082 65.3471V61.4506H240.703V64.6976C239.973 65.1847 239.243 65.3471 238.35 65.3471C236.079 65.3471 234.375 63.7235 234.375 61.5318C234.375 59.34 235.998 57.7165 238.35 57.7165L238.432 57.8788ZM244.922 66.6459H246.301V56.7424H244.922V66.6459ZM250.114 59.4212C250.114 58.5282 250.844 57.8788 252.548 57.8788C254.251 57.8788 254.414 58.1224 255.306 58.6906L255.793 57.5541C254.981 56.9859 253.764 56.6612 252.629 56.6612C250.033 56.6612 248.816 57.96 248.816 59.5024C248.816 63.1553 254.819 61.6941 254.819 64.0482C254.819 66.4024 254.089 65.5906 252.385 65.5906C250.682 65.5906 249.87 65.1035 249.14 64.4541L248.654 65.5906C249.465 66.3212 250.925 66.8082 252.466 66.8082C255.063 66.8082 256.279 65.5094 256.279 63.9671C256.279 60.3141 250.276 61.8565 250.276 59.4212H250.114ZM256.685 57.96H260.092V66.6459H261.472V57.96H264.879V56.7424H256.685V57.96ZM266.501 66.6459H267.881V56.7424H266.501V66.6459ZM275.506 57.8788C276.019 57.8758 276.526 57.9747 277 58.1698C277.473 58.3649 277.903 58.6523 278.265 59.0153L279.157 58.1224C278.265 57.0671 276.886 56.58 275.425 56.58C272.424 56.58 270.152 58.6906 270.152 61.6129C270.152 64.5353 272.424 66.6459 275.425 66.6459C278.427 66.6459 278.265 66.0776 279.238 65.1035L278.346 64.2106C277.616 65.0224 276.642 65.4282 275.588 65.4282C273.316 65.4282 271.694 63.8047 271.694 61.6129C271.694 59.4212 273.316 57.7976 275.588 57.7976L275.506 57.8788ZM281.997 59.4212C281.997 58.5282 282.727 57.8788 284.43 57.8788C286.134 57.8788 286.296 58.1224 287.189 58.6906L287.676 57.5541C286.864 56.9859 285.647 56.6612 284.512 56.6612C281.915 56.6612 280.699 57.96 280.699 59.5024C280.699 63.1553 286.702 61.6941 286.702 64.0482C286.702 66.4024 285.972 65.5906 284.268 65.5906C282.565 65.5906 281.753 65.1035 281.023 64.4541L280.536 65.5906C281.348 66.3212 282.808 66.8082 284.349 66.8082C286.945 66.8082 288.162 65.5094 288.162 63.9671C288.162 60.3141 282.159 61.8565 282.159 59.4212H281.997ZM81.4513 32.6329L70.418 21.7553C68.9578 20.2941 67.5786 20.7812 67.5786 22.8918V28.1682H27.3397C27.1037 28.1704 26.8779 28.2651 26.711 28.4321C26.5441 28.5991 26.4494 28.825 26.4473 29.0612V39.8576C26.4494 40.0938 26.5441 40.3197 26.711 40.4867C26.8779 40.6537 27.1037 40.7485 27.3397 40.7506H67.5786V46.0271C67.5786 48.2188 68.9578 48.6247 70.418 47.1635L81.4513 36.2859C82.9116 34.8247 82.9116 34.0129 81.4513 32.5518V32.6329Z" fill="white"/>
</g>
<defs>
<clipPath id="clip0_2_31">
<rect width="288" height="69" fill="white"/>
</clipPath>
</defs>
</svg>
